<svg width="214" height="28" viewBox="0 0 214 28" fill="none" xmlns="http://www.w3.org/2000/svg">
<path d="M42.2813 6.40967H37.2317V27.9326H42.2813V6.40967Z" fill="black"/>
<path d="M42.2813 0H37.2317V4.18314H42.2813V0Z" fill="black"/>
<path d="M52.7846 1.07953H47.7351V6.40966H44.5034V10.5928H47.7351V27.5952V27.9326H62.2777V22.8724H52.7846V10.5928H65.7787V6.40966H52.7846V1.07953Z" fill="black"/>
<path d="M147.649 1.07953H142.599V6.40966H139.368V10.5928H142.599V27.5952V27.9326H157.075V22.8724H147.649V10.5928H160.576V6.40966H147.649V1.07953Z" fill="black"/>
<path d="M170.136 1.07953H165.087V6.40966H161.855V10.5928H165.087V27.5952V27.9326H179.562V22.8724H170.136V10.5928H183.063V6.40966H170.136V1.07953Z" fill="black"/>
<path d="M29.1527 12.9542H5.04954V12.7518V6.40958V2.22644H0V7.08428V12.7518V28H34.2023V12.9542H29.1527ZM5.04954 17.1373H29.1527V23.7494H5.04954V17.1373Z" fill="black"/>
<path d="M100.857 6.40967H89.7481H84.6985H73.5896H68.54V27.9326H73.5896V11.4699H84.6985V27.9326H89.7481V11.4699H100.857V27.9326H105.907V6.40967H100.857Z" fill="black"/>
<path d="M132.433 6.40967H114.12H109.07V11.4699V22.8724V27.9326H114.12H132.433H137.482V6.40967H132.433ZM132.433 22.8724H114.12V11.4699H132.433V22.8724Z" fill="black"/>
<path d="M208.782 6.40967H190.469H185.42V11.4699V22.8724V27.9326H190.469H208.782H213.832V6.40967H208.782ZM208.782 22.8724H190.469V11.4699H208.782V22.8724Z" fill="black"/>
</svg>
